<?xml version="1.0" standalone="no"?>
<!DOCTYPE svg PUBLIC "-//W3C//DTD SVG 20010904//EN"
 "http://www.w3.org/TR/2001/REC-SVG-20010904/DTD/svg10.dtd">
<svg version="1.0" xmlns="http://www.w3.org/2000/svg"
 width="256.000000pt" height="300.000000pt" viewBox="0 0 256.000000 300.000000"
 preserveAspectRatio="xMidYMid meet">
<metadata>
Created by potrace 1.10, written by Peter Selinger 2001-2011
</metadata>
<g transform="translate(0.000000,300.000000) scale(0.050000,-0.050000)"
fill="#000000" stroke="none">
<path d="M664 5950 c-62 -78 -90 -251 -80 -486 6 -117 1 -211 -9 -217 -34 -21
-135 -255 -135 -312 0 -64 -14 -78 -236 -237 -221 -159 -246 -249 -139 -504
74 -174 336 -354 516 -354 70 0 69 14 19 -165 -105 -373 -98 -980 20 -1705 34
-209 94 -578 133 -820 92 -560 94 -639 22 -743 -33 -47 -55 -106 -55 -145 l0
-65 -309 5 c-331 5 -371 -5 -371 -92 0 -93 -78 -91 2542 -90 2673 0 2538 -5
2538 90 0 80 -52 100 -250 94 -107 -3 -190 1 -186 10 141 285 145 301 177 871
59 1035 -18 1540 -294 1919 l-69 94 74 96 c301 391 288 908 -31 1228 -406 407
-1119 198 -1174 -345 -37 -361 303 -604 460 -328 105 185 333 67 239 -125
-146 -299 -1032 -189 -1405 175 -139 136 -191 262 -252 621 -111 643 -302
1103 -580 1392 -214 222 -318 191 -380 -112 -35 -175 -124 -172 -306 12 -244
247 -408 328 -479 238z m256 -320 c48 -49 84 -92 79 -96 -17 -14 -192 -94
-205 -94 -7 0 -11 63 -9 140 6 165 18 170 135 50z m856 -95 c114 -170 274
-472 258 -487 -6 -6 -101 59 -212 145 -220 172 -215 163 -189 382 16 136 27
133 143 -40z m-356 -244 c39 -93 184 -213 563 -467 l153 -103 24 -145 c96
-589 149 -732 346 -924 392 -385 1244 -540 1615 -294 338 224 190 735 -201
697 -107 -10 -228 -85 -250 -155 -31 -99 -101 34 -84 160 49 372 527 489 808
197 302 -314 196 -895 -200 -1093 -197 -98 -152 -306 48 -223 63 26 67 24 129
-48 230 -266 302 -636 282 -1443 -25 -993 -81 -1188 -350 -1224 -98 -13 -98
-12 -30 132 156 326 55 741 -269 1106 -235 265 -306 509 -216 741 62 158 -88
285 -177 150 -33 -50 -94 -294 -80 -317 39 -63 -747 -414 -798 -356 -4 4 6 96
22 203 36 229 14 295 -96 295 -87 0 -89 -8 -189 -870 -116 -998 -155 -1090
-471 -1090 -120 0 -122 2 -63 125 78 161 75 231 -45 1045 -137 932 -128 887
-172 911 -148 79 -189 -11 -138 -309 51 -294 56 -284 -111 -202 -600 292 -871
1067 -652 1858 47 170 44 167 216 191 350 50 530 192 374 294 -49 32 -55 32
-155 -18 -360 -181 -867 -95 -1005 170 -28 53 -27 55 20 55 104 0 148 111 67
171 -31 23 -37 36 -19 43 20 8 321 222 363 259 4 4 -1 17 -13 29 -28 28 3 165
56 252 99 159 344 281 574 285 83 1 87 -2 124 -88z m-500 -3341 c102 -133 284
-274 456 -355 92 -44 123 -68 116 -92 -15 -53 -31 -209 -62 -609 -40 -500
-108 -631 -350 -664 -134 -18 -155 2 -104 103 83 163 86 210 34 555 -68 451
-147 927 -170 1022 -43 177 -30 183 80 40z m2677 -495 c67 -879 55 -1010 -109
-1154 -162 -142 -276 -99 -183 70 155 284 70 581 -279 966 l-145 159 225 72
c123 40 269 99 324 131 146 86 141 94 167 -244z m-727 -268 c314 -373 360
-561 198 -807 -28 -42 -48 -97 -45 -123 l7 -47 -285 -6 c-157 -3 -285 0 -285
7 0 6 22 49 48 95 73 126 171 699 172 999 0 103 8 98 190 -118z m1058 35 c198
-268 245 -554 133 -797 -35 -76 -61 -156 -58 -177 6 -34 -8 -39 -148 -44 -85
-3 -155 -1 -155 4 0 6 27 53 59 104 103 162 122 417 68 903 -15 133 8 134 101
7z m-2228 43 c0 -8 18 -168 40 -354 41 -346 29 -518 -40 -561 -11 -7 -20 -43
-20 -81 l0 -69 -110 0 c-127 0 -127 0 -58 90 81 107 108 233 133 625 13 201
31 365 39 365 9 0 16 -7 16 -15z"/>
<path d="M1046 4898 c-91 -33 -112 -147 -40 -215 58 -54 122 -55 174 -3 98 98
-5 266 -134 218z"/>
</g>
</svg>
